<svg xmlns="http://www.w3.org/2000/svg" viewBox="0 0 64 64" fill="#0078d4"><path d="M32 4c-1 0-2 .4-2.7 1.1C22 12.4 18 22 18 32v4l-6 8h40l-6-8v-4c0-10-4-19.6-11.3-26.9A3.8 3.8 0 0 0 32 4z" opacity="0.25"/><path d="M32 10c6.6 6.6 10 15.4 10 24v2H22v-2c0-8.6 3.4-17.4 10-24z" opacity="0.7"/><rect x="22" y="46" width="20" height="6" rx="1" opacity="0.5"/><rect x="24" y="54" width="16" height="4" rx="1" opacity="0.35"/><circle cx="32" cy="30" r="4" opacity="0.4"/><path d="M14 40l-4 6h6z" opacity="0.3"/><path d="M50 40l4 6h-6z" opacity="0.3"/></svg>
